<svg xmlns="http://www.w3.org/2000/svg" width="14" height="16" viewBox="0 0 14 16">
    <g fill="#FFF" fill-rule="nonzero" opacity=".64">
        <path d="M6.939 8.62h.109c.998-.017 1.805-.358 2.401-1.01 1.312-1.439 1.094-3.903 1.07-4.138-.085-1.766-.944-2.61-1.652-3.005C8.339.172 7.722.013 7.034 0H6.977c-.379 0-1.122.06-1.833.454-.716.394-1.588 1.239-1.673 3.018-.024.235-.242 2.7 1.07 4.137.592.653 1.4.994 2.398 1.01zM4.38 3.553c0-.01.003-.02.003-.026C4.496 1.153 6.23.898 6.973.898h.041c.92.02 2.483.384 2.588 2.63 0 .01 0 .02.004.026.003.024.242 2.276-.842 3.462-.429.47-1.001.702-1.754.71h-.034c-.75-.008-1.325-.24-1.75-.71-1.08-1.18-.849-3.442-.845-3.462z"/>
        <path d="M13.993 12.707v-.01c0-.026-.003-.053-.003-.083-.02-.655-.065-2.19-1.543-2.68-.01-.003-.024-.006-.034-.01-1.537-.38-2.814-1.242-2.828-1.252a.468.468 0 0 0-.64.11.439.439 0 0 0 .112.623c.058.04 1.414.957 3.11 1.38.794.276.883 1.1.906 1.856 0 .03 0 .056.004.083.003.298-.017.758-.072 1.023-.551.305-2.714 1.359-6.005 1.359-3.277 0-5.454-1.057-6.009-1.362A5.539 5.539 0 0 1 .92 12.72c0-.026.003-.053.003-.082.024-.756.113-1.58.906-1.855 1.697-.424 3.052-1.345 3.11-1.382a.439.439 0 0 0 .113-.623.468.468 0 0 0-.64-.109c-.014.01-1.285.871-2.828 1.252a.438.438 0 0 0-.034.01C.072 10.425.027 11.96.007 12.611c0 .03 0 .056-.004.083v.01c-.003.172-.006 1.057.174 1.5a.428.428 0 0 0 .177.21c.102.066 2.552 1.583 6.65 1.583 4.097 0 6.546-1.52 6.649-1.584a.446.446 0 0 0 .177-.208c.17-.441.167-1.325.163-1.498z"/>
    </g>
</svg>
