<svg xmlns="http://www.w3.org/2000/svg" width="16" height="16" viewBox="0 0 16 16">
    <path fill="#FFF" fill-opacity=".64" fill-rule="nonzero" d="M5.98 5.426a3.306 3.306 0 0 0-.498.53l-.972-.92a1.433 1.433 0 0 1-.763.223A1.444 1.444 0 1 1 5.19 3.815c0 .252-.07.485-.183.69l.973.92zm4.117-.115a3.23 3.23 0 0 0-.623-.373l1.289-2.17A1.442 1.442 0 0 1 11.788.31a1.443 1.443 0 1 1 0 2.887 1.44 1.44 0 0 1-.398-.063l-1.293 2.177zm4.46 1.822a1.443 1.443 0 1 1 0 2.885 1.44 1.44 0 0 1-1.422-1.217l-1.796-.177c.047-.221.073-.45.073-.684l-.002-.04 1.796.177c.204-.55.73-.944 1.351-.944zM9.6 12.808a1.442 1.442 0 0 1-.043 2.882 1.439 1.439 0 1 1-.665-2.718l-.402-1.755a3.29 3.29 0 0 0 .708-.164l.402 1.755zM4.887 8.637c.053.24.133.47.234.688l-2.244.752c.003.032.01.063.01.096a1.444 1.444 0 1 1-.236-.787l2.236-.75zm3.225 1.778a2.475 2.475 0 1 1 0-4.95 2.475 2.475 0 0 1 0 4.95z"/>
</svg>
