<svg xmlns="http://www.w3.org/2000/svg" width="16" height="16" viewBox="0 0 16 16">
    <g fill="#FFCF54" fill-rule="nonzero">
        <path d="M5.98 5.426l-.973-.92c.113-.206.183-.44.183-.69a1.443 1.443 0 1 0-2.887 0c0 .797.646 1.443 1.444 1.443.281 0 .541-.084.763-.223l.972.92c.147-.195.313-.373.498-.53zM10.097 5.31l1.293-2.176c.128.037.26.063.398.063a1.443 1.443 0 1 0-1.025-.429l-1.29 2.17c.222.1.431.226.624.373zM14.557 7.133c-.62 0-1.147.394-1.35.944L11.41 7.9l.002.04c0 .234-.026.463-.073.684l1.796.177A1.44 1.44 0 0 0 16 8.576c0-.797-.645-1.443-1.443-1.443zM9.599 12.808l-.402-1.755a3.29 3.29 0 0 1-.708.164l.402 1.755a1.439 1.439 0 0 0 .665 2.718 1.442 1.442 0 0 0 .043-2.882zM4.887 8.637l-2.236.749A1.442 1.442 0 0 0 0 10.173a1.443 1.443 0 1 0 2.887 0c0-.033-.007-.064-.01-.096l2.244-.752a3.296 3.296 0 0 1-.234-.688z"/>
        <circle cx="8.112" cy="7.94" r="2.475"/>
    </g>
</svg>
