<svg xmlns="http://www.w3.org/2000/svg" width="31" height="31" viewBox="0 0 31 31">
    <path fill="none" fill-rule="evenodd" stroke="#FFF" stroke-linecap="round" stroke-linejoin="round" stroke-width="2" d="M18.882 3.87V1.236 3.87zm3.374 0V1.236 3.87zM7.103 23.578V6.767h16.811v16.81H7.104zM15.51 3.871V1.235 3.87zm-3.374 0V1.235 3.87zm-3.374 0V1.235 3.87zM15.51 29.11v-2.636 2.636zm3.373 0v-2.636 2.636zm3.374 0v-2.636 2.636zm-10.121 0v-2.636 2.636zm-3.374 0v-2.636 2.636zm18.05-13.938h2.635-2.635zm0 3.374h2.635-2.635zm0 3.374h2.635-2.635zm0-10.121h2.635-2.635zm0-3.375h2.635-2.635zM1.57 15.172h2.636H1.57zm0 3.374h2.636H1.57zm0 3.374h2.636H1.57zm0-10.121h2.636H1.57zm0-3.375h2.636H1.57z"/>
</svg>
