<svg xmlns="http://www.w3.org/2000/svg" width="16" height="13" viewBox="0 0 16 13">
    <path fill="#FFCF54" fill-rule="evenodd" d="M1 13.032c-.553 0-1-.555-1-1.24 0-.685.447-1.24 1-1.24.552 0 1 .555 1 1.24 0 .685-.448 1.24-1 1.24zm0-5.756a1 1 0 1 1 0-1.999 1 1 0 0 1 0 2zm0-5.275a1 1 0 1 1 0-2 1 1 0 0 1 0 2zm13.84 10.47H4.952c-.583 0-1.056-.447-1.056-1 0-.551.473-1 1.056-1h9.888c.584 0 1.056.449 1.056 1 0 .553-.472 1-1.056 1zm0-5.235H4.952c-.583 0-1.056-.448-1.056-1s.473-1 1.056-1h9.888c.584 0 1.056.448 1.056 1s-.472 1-1.056 1zm0-5.236H4.952c-.583 0-1.056-.448-1.056-1s.473-1 1.056-1h9.888c.584 0 1.056.448 1.056 1s-.472 1-1.056 1z"/>
</svg>
