<svg xmlns="http://www.w3.org/2000/svg" width="103" height="22" viewBox="0 0 103 22">
    <g fill="none" fill-rule="nonzero">
        <path fill="#F7931A" d="M21.67 13.661c-1.469 5.893-7.438 9.48-13.332 8.01C2.446 20.2-1.141 14.233.33 8.34 1.798 2.446 7.767-1.14 13.66.328c5.894 1.47 9.48 7.439 8.01 13.332z"/>
        <path fill="#FFF" d="M14.974 9.628c.208-1.47-.851-2.262-2.3-2.79l.47-1.992-1.146-.302-.458 1.94c-.301-.08-.61-.154-.918-.229l.46-1.953L9.936 4l-.47 1.992c-.25-.06-.495-.12-.732-.182v-.006l-1.58-.418-.306 1.296s.851.206.833.219c.465.122.549.447.535.705l-.536 2.27a.913.913 0 0 1 .12.04l-.121-.031-.75 3.18c-.057.15-.201.373-.526.288.011.018-.834-.22-.834-.22L5 14.522l1.492.393c.278.074.55.15.818.223l-.475 2.016 1.146.302.47-1.994c.313.09.617.173.914.25l-.468 1.986 1.146.302.475-2.012c1.956.392 3.426.234 4.045-1.637.5-1.506-.025-2.375-1.053-2.942.749-.183 1.313-.704 1.464-1.78zm-2.62 3.887c-.355 1.506-2.753.692-3.53.487l.63-2.67c.777.205 3.27.612 2.9 2.183zm.354-3.909c-.323 1.37-2.319.675-2.966.504l.57-2.422c.648.17 2.733.49 2.396 1.918zM32.784 6.654c.899 0 1.675.16 2.327.474a4.68 4.68 0 0 1 1.63 1.282c.428.54.747 1.17.952 1.894.205.725.307 1.504.307 2.339a9.322 9.322 0 0 1-.714 3.634 9.421 9.421 0 0 1-1.949 2.981 9.168 9.168 0 0 1-2.916 2.003c-1.12.493-2.337.739-3.643.739-.17 0-.466-.005-.886-.013-.42-.009-.902-.052-1.442-.125a17.024 17.024 0 0 1-1.725-.335A8.682 8.682 0 0 1 23 20.914L27.851.67 32.196 0l-1.737 7.184a6.786 6.786 0 0 1 1.12-.389c.375-.092.776-.14 1.205-.14zM29.14 18.577c.654 0 1.27-.16 1.85-.474a4.862 4.862 0 0 0 1.502-1.267 6.38 6.38 0 0 0 .995-1.798 6.085 6.085 0 0 0 .365-2.09c0-.89-.15-1.586-.449-2.088-.299-.5-.852-.752-1.654-.752-.264 0-.602.05-1.023.139-.421.094-.799.29-1.137.586l-1.85 7.63c.112.02.21.038.295.055.082.02.173.033.264.042.096.01.206.016.338.016h.504zM41.125 21H37l3.483-14.42h4.153L41.125 21zm2.007-16.176a2.587 2.587 0 0 1-1.561-.507c-.467-.335-.698-.852-.698-1.549 0-.383.079-.743.236-1.082.16-.338.367-.63.628-.878a3.09 3.09 0 0 1 .905-.59A2.803 2.803 0 0 1 43.744 0c.576 0 1.095.169 1.56.506.463.34.696.857.696 1.55 0 .384-.079.745-.237 1.084-.157.338-.366.63-.626.877a3.034 3.034 0 0 1-.905.589c-.345.148-.71.218-1.1.218zM47.84 3.658L51.763 3l-.964 4.25H55l-.759 3.345h-4.175l-1.112 5.045c-.102.42-.16.813-.177 1.178-.018.366.025.681.126.946.1.266.281.47.544.616.26.147.635.221 1.125.221.404 0 .798-.041 1.178-.124a7.851 7.851 0 0 0 1.15-.342l.28 3.127c-.507.2-1.055.374-1.645.52-.592.147-1.292.218-2.1.218-1.164 0-2.066-.187-2.709-.56-.641-.375-1.095-.888-1.367-1.538-.267-.647-.387-1.392-.354-2.233a15.59 15.59 0 0 1 .354-2.66L47.84 3.66zM56 14.936c0-1.227.207-2.383.621-3.466a8.465 8.465 0 0 1 1.782-2.845c.77-.81 1.709-1.45 2.813-1.921C62.315 6.236 63.546 6 64.902 6c.849 0 1.607.077 2.274.231.67.155 1.276.356 1.824.608l-1.442 3.143a13.908 13.908 0 0 0-1.173-.393c-.404-.12-.899-.177-1.483-.177-1.396 0-2.5.461-3.32 1.38-.819.92-1.231 2.158-1.231 3.71 0 .921.207 1.665.623 2.234.414.57 1.178.853 2.288.853a8.047 8.047 0 0 0 2.94-.568l.312 3.221a15.62 15.62 0 0 1-1.752.53c-.641.15-1.405.228-2.29.228-1.168 0-2.157-.164-2.967-.486-.809-.328-1.478-.763-2.005-1.314a4.9 4.9 0 0 1-1.145-1.937A7.639 7.639 0 0 1 56 14.936zM73.777 21c-.981 0-1.834-.146-2.557-.434-.721-.289-1.319-.694-1.791-1.218a5.23 5.23 0 0 1-1.07-1.854c-.242-.713-.359-1.502-.359-2.367 0-1.085.179-2.17.54-3.25a9.13 9.13 0 0 1 1.6-2.924 8.487 8.487 0 0 1 2.581-2.128c1.017-.549 2.186-.825 3.5-.825.963 0 1.811.146 2.544.435.73.287 1.331.696 1.806 1.218.47.525.828 1.14 1.068 1.855.242.711.361 1.502.361 2.368 0 1.081-.176 2.166-.526 3.25a9.303 9.303 0 0 1-1.556 2.924 8.105 8.105 0 0 1-2.57 2.124c-1.027.55-2.218.826-3.57.826zm2.055-11.587c-.61 0-1.148.172-1.61.513a4.46 4.46 0 0 0-1.165 1.3 6.327 6.327 0 0 0-.711 1.72 7.232 7.232 0 0 0-.235 1.772c0 .904.15 1.608.444 2.114.298.504.833.757 1.612.757a2.63 2.63 0 0 0 1.612-.515c.46-.342.85-.776 1.166-1.3a6.343 6.343 0 0 0 .71-1.719 7.329 7.329 0 0 0 .235-1.773c0-.9-.149-1.606-.445-2.112-.297-.504-.835-.757-1.613-.757zM86.126 21H82l3.481-14.42h4.153L86.126 21zm2.003-16.176a2.58 2.58 0 0 1-1.559-.507c-.464-.335-.697-.852-.697-1.549 0-.383.08-.743.237-1.082.157-.338.367-.63.627-.878.26-.245.564-.442.906-.59A2.78 2.78 0 0 1 88.74 0c.577 0 1.097.169 1.56.506.465.34.699.857.699 1.55 0 .384-.083.745-.239 1.084-.156.338-.365.63-.625.877a3.063 3.063 0 0 1-.904.589 2.762 2.762 0 0 1-1.103.218zM92.25 7.005c.302-.092.638-.202 1.005-.322a14.306 14.306 0 0 1 2.766-.585A16.56 16.56 0 0 1 97.939 6c2.095 0 3.54.634 4.337 1.897.797 1.264.935 2.994.418 5.186L100.866 21h-4l1.772-7.75c.108-.485.193-.953.256-1.41.063-.453.06-.852-.015-1.198a1.444 1.444 0 0 0-.495-.837c-.262-.213-.658-.32-1.195-.32-.518 0-1.045.058-1.583.169L93 21H89l3.25-13.995z"/>
    </g>
</svg>
