<svg xmlns="http://www.w3.org/2000/svg" width="29" height="34" viewBox="0 0 29 34">
    <g fill="#FFF" fill-rule="evenodd">
        <path d="M14.616 20.44v3.16c.457-.093.808-.288 1.056-.582.247-.29.371-.634.371-1.026 0-.417-.12-.742-.36-.97-.243-.23-.599-.425-1.067-.581zm-.853-2.142v-2.77c-.379.123-.675.28-.884.477-.214.199-.319.495-.319.897 0 .382.099.67.297.864.196.196.498.37.906.532zm.853-4.958v.782c.485.054.895.158 1.24.318.346.16.647.399.9.722.205.244.362.498.47.76.11.258.166.495.166.712 0 .239-.08.449-.245.626a.8.8 0 0 1-.6.262c-.441 0-.726-.253-.857-.766-.146-.602-.506-1-1.074-1.196v3.004c.56.162 1.004.31 1.335.445.329.137.628.33.887.584.28.265.494.586.645.952.152.367.225.772.225 1.208 0 .553-.12 1.064-.362 1.542-.242.48-.593.873-1.06 1.176-.468.302-1.028.483-1.67.538v1.801c0 .283-.022.492-.076.62-.052.128-.166.195-.337.195-.163 0-.28-.052-.345-.156-.063-.106-.095-.272-.095-.494v-1.948c-.525-.064-.987-.196-1.381-.4a3.229 3.229 0 0 1-.984-.75 3.21 3.21 0 0 1-.585-.94 2.594 2.594 0 0 1-.188-.957c0-.233.08-.443.252-.626a.813.813 0 0 1 .63-.28c.202 0 .374.054.516.152a.795.795 0 0 1 .288.428c.122.396.228.695.315.905.093.212.228.401.41.575.18.173.425.306.727.397v-3.358a7.943 7.943 0 0 1-1.512-.596 2.588 2.588 0 0 1-.984-.935c-.254-.405-.379-.922-.379-1.56 0-.826.245-1.507.738-2.036.491-.53 1.204-.839 2.137-.924v-.764c0-.405.138-.608.423-.608.288 0 .43.197.43.59zM11.352 5.723h5.622l3.628-3.77c-.163-.092-.299-.189-.421-.274-.288-.206-.448-.319-.844-.319-.397 0-.555.113-.844.319-.358.253-.848.6-1.746.6-.901 0-1.39-.347-1.747-.602-.287-.204-.446-.317-.838-.317-.397 0-.555.113-.843.319-.359.254-.848.6-1.744.6-.9 0-1.389-.347-1.745-.602-.288-.204-.447-.317-.84-.317-.394 0-.552.113-.84.317a4.202 4.202 0 0 1-.421.275l3.623 3.771zm5.955 1.36h-6.29a.766.766 0 0 1-.553-.23L5.852 2.05a.638.638 0 0 1-.12-.73.745.745 0 0 1 .674-.4c.392 0 .552-.113.84-.319C7.602.348 8.09 0 8.99 0c.898 0 1.387.348 1.744.601.288.206.446.319.84.319.394 0 .553-.113.841-.319.357-.253.846-.601 1.747-.601.895 0 1.384.347 1.742.6.288.207.446.32.843.32.396 0 .555-.113.843-.32.358-.252.848-.6 1.747-.6.898 0 1.389.348 1.746.6.29.207.448.32.845.32.29 0 .554.156.673.4.12.244.073.53-.12.731l-4.622 4.804a.767.767 0 0 1-.552.228z"/>
        <path d="M11.077 7.83c-2.898 1.595-7.462 4.636-7.854 6.302-.408 1.746-.684 6.837-.867 10.207-.1 1.856-.156 2.84-.21 3.165-.049.3-.185.607-.326.93-.49 1.116-.69 1.727.559 2.353.903.456 5.01 1.759 11.789 1.759 5.75 0 10.83-1.274 11.79-1.759 1.244-.626 1.047-1.236.557-2.351-.143-.325-.277-.631-.327-.934-.055-.324-.11-1.325-.214-3.215-.182-3.353-.46-8.42-.862-10.156-.39-1.665-4.955-4.706-7.854-6.302h-6.181zM14.168 34c-7.092 0-11.382-1.382-12.437-1.912C-.808 30.81.075 28.808.5 27.845c.094-.215.202-.46.222-.58.042-.26.116-1.594.192-3.006.187-3.42.466-8.59.905-10.46.677-2.886 7.909-6.889 8.733-7.335a.703.703 0 0 1 .342-.089h6.549c.12 0 .237.03.344.087.822.448 8.06 4.45 8.732 7.337.434 1.86.714 7.004.9 10.408.077 1.436.152 2.793.195 3.055.02.124.13.37.224.588.422.961 1.301 2.962-1.234 4.238-1.322.667-6.76 1.912-12.435 1.912z"/>
    </g>
</svg>
