<svg xmlns="http://www.w3.org/2000/svg" width="14" height="18" viewBox="0 0 14 18">
    <g fill="#FFF" fill-rule="nonzero" opacity=".64">
        <path d="M7.044 2.216a4.191 4.191 0 0 0-4.187 4.187 4.191 4.191 0 0 0 4.187 4.186 4.191 4.191 0 0 0 4.186-4.186 4.191 4.191 0 0 0-4.186-4.187zm0 7.318a3.135 3.135 0 0 1-3.132-3.131 3.135 3.135 0 0 1 3.132-3.131 3.135 3.135 0 0 1 3.13 3.13 3.135 3.135 0 0 1-3.13 3.132z"/>
        <path d="M11.363 10.863l1.117-.492.225-2.115 1.07-1.84-1.064-1.84-.216-2.116-1.94-.87L9.137.008l-2.08.439L4.976 0 3.554 1.578l-1.946.857-.225 2.115-1.07 1.839L1.377 8.23l.216 2.115 1.077.483-2.66 5.65L2.2 16.08l1.122 1.93 2.612-5.419 1.096-.231 1.032.221 2.617 5.429 1.122-1.93 2.19.397-2.63-5.614zM3.236 15.76l-.496-.85-.904.163 1.775-3.77 1.153 1.287-1.528 3.17zm3.796-4.48l-1.703.36-1.16-1.297-1.59-.712-.176-1.733-.87-1.508.875-1.505.183-1.732 1.594-.701 1.167-1.294 1.703.365 1.703-.36 1.16 1.298 1.59.712.176 1.733.87 1.508-.875 1.505-.183 1.731-1.594.702-1.167 1.293-1.703-.365zm4.23 3.63l-.495.85-1.506-3.124 1.164-1.29 1.745 3.728-.908-.165z"/>
    </g>
</svg>
