<svg xmlns="http://www.w3.org/2000/svg" width="18" height="18" viewBox="0 0 18 18">
    <g fill="#FFCF54" fill-rule="nonzero">
        <circle cx="11.86" cy="12.14" r="1"/>
        <path d="M8.35 16.561H2.808c-.774 0-1.403-.63-1.403-1.403V9.404C1.404 8.63 2.034 8 2.807 8h10.105c.774 0 1.404.63 1.404 1.404v1.403a.702.702 0 1 0 1.403 0V9.404a2.81 2.81 0 0 0-2.807-2.807h-.843V4.122C12.069 1.849 10.18 0 7.859 0 5.536 0 3.647 1.849 3.647 4.122v2.475h-.841A2.81 2.81 0 0 0 0 9.404v5.754a2.81 2.81 0 0 0 2.807 2.807h5.544a.702.702 0 1 0 0-1.404zM5.052 4.121c0-1.498 1.26-2.717 2.807-2.717 1.548 0 2.807 1.219 2.807 2.718v2.475H5.051V4.122z"/>
        <path d="M17.672 11.43a.702.702 0 0 0-.98.162l-3.458 4.831a.397.397 0 0 1-.277.138.397.397 0 0 1-.3-.108l-2.236-2.181a.702.702 0 1 0-.98 1.004l2.24 2.185.006.007a1.81 1.81 0 0 0 1.364.493 1.81 1.81 0 0 0 1.31-.701l3.473-4.851a.702.702 0 0 0-.162-.98z"/>
        <circle cx="9.193" cy="12.14" r="1"/>
        <circle cx="3.93" cy="12.14" r="1"/>
        <circle cx="6.561" cy="12.14" r="1"/>
    </g>
</svg>
