<svg xmlns="http://www.w3.org/2000/svg" width="18" height="20" viewBox="0 0 18 20">
    <g fill="none" fill-rule="evenodd" opacity=".84">
        <path fill="#FFF" fill-rule="nonzero" d="M6.25 9.083H4.417v1.834H6.25V9.083zm3.667 0H8.083v1.834h1.834V9.083zm3.666 0H11.75v1.834h1.833V9.083zm1.834-6.416H14.5V.833h-1.833v1.834H5.333V.833H3.5v1.834h-.917A1.825 1.825 0 0 0 .76 4.5L.75 17.333c0 1.009.816 1.834 1.833 1.834h12.834a1.839 1.839 0 0 0 1.833-1.834V4.5a1.839 1.839 0 0 0-1.833-1.833zm0 14.666H2.583V7.25h12.834v10.083z"/>
        <path d="M-2-1h22v22H-2z"/>
    </g>
</svg>
