<svg xmlns="http://www.w3.org/2000/svg" width="16" height="16" viewBox="0 0 16 16">
    <g fill="none" fill-rule="evenodd">
        <path d="M-2-2h20v20H-2z"/>
        <path fill="#DBDCDC" d="M10.158 10.992l1.175 1.175L15.5 8l-4.167-4.167-1.175 1.175 2.15 2.159H4.25v1.666h8.058l-2.15 2.159zM2.167 15.5h11.666c.925 0 1.667-.75 1.667-1.667v-2.5l-1.667.834v1.666H2.167V2.167h11.666v1.666l1.667.834v-2.5C15.5 1.25 14.758.5 13.833.5H2.167C1.25.5.5 1.25.5 2.167v11.666c0 .917.75 1.667 1.667 1.667z"/>
    </g>
</svg>
