<svg xmlns="http://www.w3.org/2000/svg" width="19" height="18" viewBox="0 0 19 18">
    <g fill="#FFF" fill-rule="nonzero" opacity=".64">
        <path d="M17.627 7.494v-1.95a1.847 1.847 0 0 0-1.844-1.845h-2.38L9.427.165a.615.615 0 0 0-.817 0L4.634 3.699h-1.56A3.078 3.078 0 0 0 0 6.774v7.378a3.078 3.078 0 0 0 3.075 3.075h12.708a1.847 1.847 0 0 0 1.844-1.845v-1.95a1.848 1.848 0 0 0 1.23-1.74V9.234c0-.801-.514-1.485-1.23-1.739zM9.02 1.447L11.552 3.7H6.485L9.02 1.447zm7.379 13.935c0 .34-.276.615-.615.615H3.075a1.847 1.847 0 0 1-1.845-1.845V6.774c0-1.018.827-1.845 1.845-1.845h12.708c.339 0 .615.276.615.615v1.845h-1.845a3.078 3.078 0 0 0-3.075 3.074 3.078 3.078 0 0 0 3.075 3.075h1.845v1.844zm1.23-3.69c0 .34-.277.616-.616.616h-2.46a1.847 1.847 0 0 1-1.844-1.845c0-1.017.828-1.845 1.845-1.845h2.46c.338 0 .614.276.614.615v2.46z"/>
        <circle cx="14.553" cy="10.463" r="1"/>
    </g>
</svg>
