<svg xmlns="http://www.w3.org/2000/svg" xmlns:xlink="http://www.w3.org/1999/xlink" width="102" height="25" viewBox="0 0 102 25">
    <defs>
        <path id="a" d="M.055.039h27.768v18.726H.055z"/>
    </defs>
    <g fill="none" fill-rule="evenodd">
        <path fill="#7DBD53" d="M17.542 0C7.845 0 0 4.595 0 10.3c0 2.416 1.419 4.634 3.824 6.417-1.183-1.466-1.853-3.09-1.853-4.833 0-5.902 7.687-10.696 17.148-10.696 6.11 0 11.471 1.98 14.507 4.992C30.906 2.535 24.716 0 17.542 0"/>
        <path fill="#FFFFFE" d="M9.736 9.047c.504-.419 1.13-.629 1.879-.629.73 0 1.353.214 1.866.64.513.428.796.974.848 1.638H8.77c.14-.68.461-1.23.966-1.649zM16 13.211c.713 0 1.287-.15 1.722-.45.505-.333.757-.815.757-1.448 0-1.17-.383-2.254-1.148-3.25-.766-.997-1.749-1.748-2.95-2.254-.835-.348-1.766-.523-2.792-.523-2.07 0-3.771.673-5.102 2.017C5.156 8.648 4.49 10.27 4.49 12.167c0 1.914.696 3.523 2.088 4.828 1.392 1.305 3.132 1.957 5.22 1.957a10.84 10.84 0 0 0 3.21-.474c1.218-.364 2.105-.894 2.662-1.59.313-.38.47-.759.47-1.138 0-.997-.557-1.495-1.67-1.495-.244 0-.87.21-1.88.629-1.009.419-1.87.628-2.583.628-.853 0-1.575-.197-2.166-.593-.592-.395-.931-.964-1.018-1.708H16zM20.827 16.96c1.288 1.312 2.993 1.969 5.116 1.969 1.27 0 2.33-.19 3.184-.57 1.183-.537 1.774-1.194 1.774-1.969 0-.459-.152-.85-.456-1.174-.305-.324-.7-.487-1.188-.487-.33 0-.748.095-1.253.285a4.634 4.634 0 0 1-1.644.285c-1.01 0-1.792-.317-2.349-.95-.487-.569-.73-1.328-.73-2.277 0-.901.234-1.653.704-2.254.522-.664 1.262-.996 2.219-.996.59 0 1.152.099 1.683.296.53.198.961.297 1.292.297.504 0 .922-.158 1.253-.475.33-.316.495-.703.495-1.162 0-.886-.574-1.55-1.722-1.993-.853-.317-1.853-.475-3.001-.475-2.193 0-3.95.637-5.272 1.91-1.323 1.273-1.984 2.915-1.984 4.923 0 1.946.627 3.551 1.88 4.816M36.042 9.913c.505-.68 1.218-1.02 2.14-1.02.905 0 1.61.348 2.114 1.044.453.601.68 1.328.68 2.183 0 .885-.219 1.621-.653 2.206-.505.696-1.219 1.044-2.14 1.044-.905 0-1.61-.348-2.114-1.044-.453-.601-.679-1.336-.679-2.206 0-.87.217-1.606.652-2.207zm-3.053 7.07C34.346 18.328 36.077 19 38.183 19c2.122 0 3.853-.665 5.193-1.993 1.288-1.297 1.931-2.918 1.931-4.864 0-1.96-.652-3.598-1.957-4.911-1.305-1.313-3.027-1.97-5.167-1.97-2.106 0-3.824.662-5.155 1.982-1.33 1.32-1.996 2.954-1.996 4.9 0 1.93.652 3.543 1.957 4.84z"/>
        <path fill="#7DBD53" d="M51.232 16.022v-2.954h2.922c2.053 0 3.671-.513 4.855-1.542 1.183-1.028 1.775-2.475 1.775-4.342 0-1.881-.653-3.345-1.958-4.389-1.235-.996-2.906-1.494-5.01-1.494H49.9c-1.132 0-1.914.205-2.35.616-.434.41-.652 1.13-.652 2.156v11.941c0 1.864.722 2.796 2.166 2.796s2.167-.93 2.167-2.788zm0-11.091h1.879c1.983 0 2.975.75 2.975 2.253 0 1.535-.992 2.302-2.975 2.302h-1.88V4.931z"/>
        <g transform="translate(60.969 5.295)">
            <mask id="b" fill="#fff">
                <use xlink:href="#a"/>
            </mask>
            <path fill="#7DBD53" d="M12.008 13.515c1.391 0 2.087-.935 2.087-2.805V2.985c0-1.853-.696-2.78-2.087-2.78-.853 0-1.523.403-2.01 1.21C9.145.498 8.015.039 6.605.039c-1.93 0-3.523.711-4.776 2.135C.646 3.503.055 5.06.055 6.848c0 1.771.565 3.314 1.696 4.626 1.235 1.424 2.801 2.136 4.698 2.136 1.496 0 2.679-.483 3.549-1.447.418.901 1.087 1.352 2.01 1.352zm-6.92-8.826c.502-.649 1.186-.973 2.052-.973.883 0 1.567.324 2.052.973.415.57.623 1.273.623 2.111 0 .839-.208 1.55-.623 2.136-.485.664-1.169.996-2.052.996S5.564 9.6 5.062 8.936C4.63 8.35 4.413 7.639 4.413 6.8c0-.822.225-1.526.675-2.111zM23.882 1.723L21.3 7.844l-2.402-5.789c-.26-.648-.495-1.083-.704-1.305-.348-.363-.827-.545-1.436-.545-.591 0-1.083.182-1.474.545a1.77 1.77 0 0 0-.587 1.352c0 .38.078.736.234 1.068l4.253 9.036-1.738 3.437c-.232.488-.348.92-.348 1.298 0 .567.191 1.015.574 1.346.382.33.887.495 1.514.495.747 0 1.365-.514 1.852-1.542l6.447-13.88c.226-.49.34-.933.34-1.328 0-1.218-.697-1.827-2.089-1.827-.8 0-1.418.506-1.853 1.518" mask="url(#b)"/>
        </g>
        <path fill="#7DBD53" d="M99.16 15.061h-4.166l5.601-6.544c.571-.666.857-1.228.857-1.687 0-.507-.218-.827-.653-.962-.435-.134-1.105-.202-2.01-.202H92.03c-1.792 0-2.688.578-2.688 1.732 0 1.17.888 1.756 2.662 1.756h3.628l-5.794 6.81c-.418.49-.626.98-.626 1.47 0 .791.739 1.186 2.218 1.186h7.699c1.775 0 2.662-.585 2.662-1.755 0-1.202-.877-1.804-2.63-1.804"/>
    </g>
</svg>
