<svg xmlns="http://www.w3.org/2000/svg" width="34" height="34" viewBox="0 0 34 34">
    <defs>
        <filter id="a" width="153.8%" height="153.8%" x="-26.9%" y="-19.2%" filterUnits="objectBoundingBox">
            <feOffset dy="2" in="SourceAlpha" result="shadowOffsetOuter1"/>
            <feGaussianBlur in="shadowOffsetOuter1" result="shadowBlurOuter1" stdDeviation="2"/>
            <feColorMatrix in="shadowBlurOuter1" result="shadowMatrixOuter1" values="0 0 0 0 0 0 0 0 0 0 0 0 0 0 0 0 0 0 0.1 0"/>
            <feMerge>
                <feMergeNode in="shadowMatrixOuter1"/>
                <feMergeNode in="SourceGraphic"/>
            </feMerge>
        </filter>
        <linearGradient id="b" x1="50%" x2="50%" y1="0%" y2="100%">
            <stop offset="0%" stop-color="#FFCF00"/>
            <stop offset="100%" stop-color="#FFB700"/>
        </linearGradient>
    </defs>
    <g fill="none" fill-rule="evenodd" filter="url(#a)" transform="translate(4 2)">
        <path fill="url(#b)" d="M3.349 26C1.499 26 0 24.5 0 22.651V3.35C0 1.499 1.5 0 3.349 0H22.65C24.501 0 26 1.5 26 3.349V22.65C26 24.501 24.5 26 22.651 26H3.35z"/>
        <path fill="#1C1E21" d="M16.095 9.817H13.74V8.91c0-.429.337-.776.751-.776h1.605v-3.18h-2.58c-1.677 0-3.037 1.404-3.037 3.137v1.727H8.667V13h1.81v8.049h3.262v-8.049h2.356V9.817"/>
    </g>
</svg>
