<svg xmlns="http://www.w3.org/2000/svg" width="195" height="25" viewBox="0 0 195 25">
    <g fill="#FFF" fill-rule="evenodd" opacity=".56">
        <path d="M39 21.728V5.232c0-.344.123-.636.37-.874.246-.239.54-.358.883-.358h15.213c.343 0 .635.124.877.371s.363.543.363.888v1.245c0 .345-.12.638-.363.881a1.193 1.193 0 0 1-.877.365H43.974v4.664h9.355c.343 0 .635.123.877.37.242.248.363.54.363.875v1.259c0 .344-.121.638-.363.88a1.193 1.193 0 0 1-.877.365h-9.355v5.565c0 .362-.12.665-.363.908a1.193 1.193 0 0 1-.877.364h-2.48c-.344 0-.638-.121-.885-.364a1.223 1.223 0 0 1-.369-.908zm16.797.053L59.11 9.167c.897-3.436 3.817-5.158 8.76-5.167h7.112c.326 0 .596.124.812.371.215.247.323.534.323.861v16.549c0 .345-.123.634-.37.868-.246.234-.54.351-.883.351h-2.48c-.362 0-.658-.117-.892-.351-.233-.234-.35-.532-.35-.894v-3.34h-9.38l-.884 3.34a1.56 1.56 0 0 1-.594.894c-.308.234-.633.351-.976.351h-2.6c-.342 0-.589-.1-.738-.298-.15-.199-.222-.373-.218-.523.005-.15.02-.283.046-.398zm6.94-7.115h8.405V7.75h-3.76c-.845 0-1.581.24-2.21.722-.63.481-1.054 1.128-1.274 1.94l-1.16 4.254zm36.22 7.764c0 .38-.225.57-.674.57h-3.166c-.335 0-.702-.121-1.102-.364a2.673 2.673 0 0 1-.917-.881l-2.243-3.525c-.924-1.449-2.04-2.173-3.351-2.173h-3.22v5.698c0 .344-.12.638-.362.88a1.193 1.193 0 0 1-.878.365h-2.48c-.343 0-.638-.121-.884-.364a1.192 1.192 0 0 1-.37-.881V5.259c0-.345.12-.64.357-.888.237-.247.527-.371.87-.371h10.885c2.015 0 3.666.543 4.955 1.63 1.288 1.086 1.933 2.552 1.933 4.399 0 2.57-1.658 4.182-4.975 4.836.528.194 1.016.527 1.465 1 .449.473.963 1.16 1.544 2.06l2.401 3.83c.14.247.211.472.211.675zM84.283 12.308h5.621c.906 0 1.704-.182 2.395-.544.69-.362 1.035-.94 1.035-1.735 0-.795-.345-1.374-1.035-1.736-.69-.362-1.489-.543-2.395-.543h-5.62v4.558zm16.283 9.42V5.285c0-.362.119-.667.356-.914.238-.247.528-.371.871-.371h5.37c.343 0 .669.124.977.371.307.247.514.543.62.888l3.892 11.315 3.892-11.315c.106-.345.312-.64.62-.888.308-.247.633-.371.976-.371h5.37c.343 0 .632.124.865.371.233.247.35.552.35.914v16.443c0 .362-.122.665-.364.908a1.193 1.193 0 0 1-.877.364h-2.375c-.343 0-.635-.121-.877-.364a1.235 1.235 0 0 1-.363-.908V8.783l-4.658 13.025a1.886 1.886 0 0 1-.646.84c-.308.235-.633.352-.976.352h-1.887a1.56 1.56 0 0 1-.97-.351 2 2 0 0 1-.653-.841l-4.644-13.025v12.945c0 .362-.121.665-.363.908a1.193 1.193 0 0 1-.877.364h-2.375c-.343 0-.638-.121-.884-.364a1.223 1.223 0 0 1-.37-.908zM130.49 18.5c1.14 0 1.711.61 1.711 1.832v.85c0 .565-.146 1.01-.437 1.333-.292.323-.717.485-1.275.485h-1.56c-.558 0-.983-.162-1.274-.485-.292-.323-.438-.768-.438-1.334v-.849c0-.592.148-1.046.444-1.36.296-.315.719-.472 1.268-.472h1.56zM134.693 5.259c0-.345.122-.64.367-.888a1.19 1.19 0 0 1 .877-.371h10.641c2.61 0 4.534.76 5.773 2.279.69.84 1.034 1.91 1.034 3.213 0 1.303-.59 2.44-1.767 3.412 1.675.91 2.513 2.323 2.513 4.24 0 1.916-.67 3.372-2.01 4.365-1.339.994-2.981 1.491-4.927 1.491h-11.257a1.2 1.2 0 0 1-.877-.364 1.197 1.197 0 0 1-.367-.881V5.259zm4.935 14.164h7.487c.672 0 1.187-.204 1.545-.61.357-.406.536-.963.536-1.67 0-.706-.179-1.262-.536-1.669-.358-.406-.873-.61-1.545-.61h-7.487v4.559zm0-8.043h7.003c.55 0 .99-.166 1.322-.497.331-.331.497-.795.497-1.391s-.166-1.062-.497-1.398c-.332-.336-.772-.503-1.322-.503h-7.003v3.79zM156.623 21.728V5.232c0-.344.125-.636.374-.874.25-.239.549-.358.896-.358h15.416c.347 0 .644.124.889.371s.367.543.367.888v1.245c0 .345-.122.638-.367.881a1.217 1.217 0 0 1-.89.365h-11.645v3.855h10.028c.348 0 .644.122.89.365.244.243.367.536.367.88v1.246c0 .345-.123.638-.368.881a1.217 1.217 0 0 1-.889.365h-10.028v3.908h11.619c.339 0 .628.12.869.358.24.239.361.53.361.875v1.272c0 .344-.125.638-.374.88a1.24 1.24 0 0 1-.896.365h-15.349a1.24 1.24 0 0 1-.896-.364 1.215 1.215 0 0 1-.374-.908zM175.562 6.504V5.26c0-.362.12-.663.36-.901.24-.239.542-.358.906-.358h16.906c.365 0 .666.12.906.358s.36.539.36.9v1.246c0 .362-.12.66-.36.895-.24.234-.541.35-.906.35h-5.942v14.032c0 .345-.122.634-.366.868-.244.234-.54.351-.886.351h-2.518c-.346 0-.642-.117-.886-.351a1.154 1.154 0 0 1-.366-.868V7.75h-5.942c-.364 0-.666-.117-.906-.351a1.196 1.196 0 0 1-.36-.895z"/>
        <g>
            <path d="M24.275.702c.473.252.899.592 1.278 1.052.948 1.138 1.421 2.59 1.421 4.358 0 1.767-.81 3.31-2.428 4.628C26.849 11.974 28 13.89 28 16.49s-.92 4.575-2.762 5.923c-1.84 1.347-4.099 2.021-6.773 2.021H7.672c.196-.382.297-.81.297-1.268v-6.053h11.11c.738 0 1.4-.27 1.923-.788.525-.52.801-1.18.801-1.917v-1.619c0-.725-.275-1.378-.794-1.9a2.66 2.66 0 0 0-1.93-.804H7.968V6.293h13.9c.74 0 1.4-.27 1.924-.788.525-.52.801-1.18.801-1.917V1.986c0-.463-.109-.896-.32-1.284z"/>
            <path d="M0 22.799V1.585C0 1.142.16.767.482.46.804.153 1.19 0 1.637 0h19.869c.448 0 .83.159 1.146.477.316.318.474.699.474 1.142V3.22c0 .443-.158.821-.474 1.134a1.57 1.57 0 0 1-1.146.468H6.496v5.998h12.218c.448 0 .83.159 1.146.477.316.318.474.693.474 1.125v1.618c0 .443-.158.821-.474 1.134a1.57 1.57 0 0 1-1.146.468H6.497V22.8c0 .465-.158.854-.474 1.167a1.57 1.57 0 0 1-1.146.468h-3.24c-.448 0-.833-.156-1.155-.468A1.56 1.56 0 0 1 0 22.799z"/>
        </g>
    </g>
</svg>
