<svg xmlns="http://www.w3.org/2000/svg" width="195" height="25" viewBox="0 0 195 25">
    <defs>
        <linearGradient id="a" x1="50%" x2="50%" y1="0%" y2="100%">
            <stop offset="0%" stop-color="#FFCF00"/>
            <stop offset="100%" stop-color="#FFB700"/>
        </linearGradient>
    </defs>
    <g fill="none" fill-rule="nonzero">
        <path fill="#FFF" d="M38.853 21.514V4.916c0-.346.124-.64.37-.88.247-.24.542-.36.885-.36h15.227c.343 0 .636.125.878.374s.363.546.363.893v1.253c0 .347-.12.642-.363.887a1.19 1.19 0 0 1-.878.366H43.832v4.693h9.363c.344 0 .637.125.879.373.242.25.363.543.363.88v1.267c0 .346-.121.642-.363.886a1.19 1.19 0 0 1-.879.367h-9.363v5.6c0 .364-.12.668-.363.912a1.19 1.19 0 0 1-.878.367h-2.483c-.343 0-.638-.122-.885-.367a1.234 1.234 0 0 1-.37-.913zm16.814.054L58.98 8.876c.898-3.458 3.821-5.19 8.77-5.2h7.117c.326 0 .597.125.813.374.215.249.323.537.323.866v16.652c0 .346-.123.637-.37.873a1.236 1.236 0 0 1-.884.353h-2.483c-.361 0-.658-.118-.892-.353-.233-.236-.35-.536-.35-.9v-3.36h-9.39l-.884 3.36a1.57 1.57 0 0 1-.594.9c-.309.235-.634.353-.978.353h-2.601c-.344 0-.59-.1-.74-.3-.15-.2-.222-.375-.218-.526a2.08 2.08 0 0 1 .047-.4zm6.946-7.16h8.412V7.45h-3.763c-.846 0-1.583.243-2.212.727-.63.484-1.055 1.135-1.275 1.953l-1.162 4.28zm36.253 7.813c0 .382-.225.573-.674.573h-3.17c-.334 0-.701-.122-1.102-.367-.4-.244-.706-.54-.918-.886l-2.245-3.546c-.924-1.458-2.042-2.187-3.354-2.187H84.18v5.733c0 .347-.12.642-.363.886a1.19 1.19 0 0 1-.878.367h-2.483c-.343 0-.638-.122-.885-.367a1.203 1.203 0 0 1-.37-.886V4.943c0-.347.12-.644.357-.893a1.16 1.16 0 0 1 .872-.374h10.895c2.016 0 3.67.547 4.959 1.64 1.29 1.093 1.935 2.569 1.935 4.426 0 2.587-1.66 4.209-4.98 4.866.53.196 1.018.532 1.467 1.007.449.476.964 1.167 1.545 2.073l2.403 3.853c.141.249.212.475.212.68zM84.18 12.035h5.626c.907 0 1.706-.182 2.397-.546.691-.365 1.037-.947 1.037-1.747 0-.8-.346-1.382-1.037-1.746-.69-.364-1.49-.547-2.397-.547H84.18v4.586zm16.298 9.48V4.97c0-.365.12-.671.357-.92a1.16 1.16 0 0 1 .872-.374h5.375c.343 0 .669.125.977.374.308.249.515.546.62.893l3.896 11.385 3.896-11.385c.106-.347.313-.644.621-.893.308-.25.634-.374.977-.374h5.375c.344 0 .632.125.865.374.234.249.35.555.35.92v16.544c0 .365-.12.67-.363.913a1.19 1.19 0 0 1-.878.367h-2.377a1.19 1.19 0 0 1-.879-.367 1.246 1.246 0 0 1-.363-.913V8.49l-4.662 13.105a1.896 1.896 0 0 1-.647.847c-.308.235-.634.353-.977.353h-1.888c-.344 0-.667-.118-.971-.353a2.012 2.012 0 0 1-.654-.847L105.352 8.49v13.025c0 .365-.121.67-.364.913a1.19 1.19 0 0 1-.878.367h-2.377c-.343 0-.638-.122-.885-.367a1.234 1.234 0 0 1-.37-.913z"/>
        <path fill="#FFCF54" d="M130.429 18.266c1.142 0 1.713.615 1.713 1.844v.854c0 .57-.146 1.017-.438 1.342-.292.325-.717.488-1.275.488h-1.562c-.558 0-.984-.163-1.276-.488-.291-.325-.437-.773-.437-1.342v-.854c0-.597.148-1.053.444-1.37.296-.316.72-.474 1.27-.474h1.56zM134.637 4.943c0-.347.122-.644.366-.893.245-.25.538-.374.878-.374h10.652c2.612 0 4.537.765 5.778 2.294.69.844 1.035 1.922 1.035 3.232 0 1.311-.59 2.456-1.769 3.433 1.677.916 2.516 2.338 2.516 4.267 0 1.928-.67 3.392-2.012 4.392-1.34 1-2.985 1.5-4.932 1.5H135.88c-.34 0-.633-.122-.878-.367a1.207 1.207 0 0 1-.366-.886V4.943zm4.939 14.252h7.494c.673 0 1.188-.205 1.546-.614.358-.409.537-.968.537-1.68 0-.71-.179-1.27-.537-1.68-.358-.408-.873-.613-1.546-.613h-7.494v4.587zm0-8.093h7.01c.55 0 .99-.166 1.323-.5.332-.333.497-.8.497-1.4 0-.6-.165-1.068-.497-1.406-.332-.338-.773-.507-1.324-.507h-7.01v3.813zM156.587 21.514V4.916c0-.346.125-.64.375-.88s.548-.36.896-.36h15.43c.348 0 .645.125.89.374.246.249.368.546.368.893v1.253c0 .347-.122.642-.368.887a1.215 1.215 0 0 1-.89.366h-11.656v3.88h10.037c.348 0 .645.122.89.366.245.245.368.54.368.887v1.253c0 .347-.123.642-.368.887a1.215 1.215 0 0 1-.89.366h-10.037v3.933h11.63c.339 0 .629.12.87.36.24.24.36.533.36.88v1.28c0 .347-.124.642-.374.886-.25.245-.549.367-.897.367h-15.363c-.348 0-.647-.122-.896-.367a1.226 1.226 0 0 1-.375-.913zM175.544 6.196V4.943a1.229 1.229 0 0 1 1.267-1.267h16.922A1.23 1.23 0 0 1 195 4.943v1.253c0 .365-.12.665-.36.9-.24.236-.542.353-.907.353h-5.947v14.119c0 .346-.123.637-.367.873-.245.235-.54.353-.887.353h-2.52c-.347 0-.642-.118-.887-.353a1.164 1.164 0 0 1-.367-.873V7.449h-5.947c-.365 0-.667-.117-.907-.353-.24-.235-.36-.535-.36-.9z"/>
        <g>
            <path fill="url(#a)" d="M24.15.702c.471.252.895.592 1.273 1.052.943 1.138 1.414 2.59 1.414 4.358 0 1.767-.806 3.31-2.417 4.628 2.292 1.234 3.437 3.15 3.437 5.75s-.916 4.575-2.747 5.923c-1.832 1.347-4.079 2.021-6.74 2.021H7.633c.195-.382.295-.81.295-1.268v-6.053h11.053c.735 0 1.393-.27 1.914-.788.522-.52.797-1.18.797-1.917v-1.619a2.65 2.65 0 0 0-.79-1.9 2.64 2.64 0 0 0-1.92-.804H7.927V6.293h13.83c.735 0 1.393-.27 1.914-.788.522-.52.797-1.18.797-1.917V1.986c0-.463-.109-.896-.318-1.284z"/>
            <path fill="#FFF" d="M0 22.799V1.585C0 1.142.16.767.48.46.8.153 1.183 0 1.629 0h19.767c.446 0 .826.159 1.14.477.314.318.472.699.472 1.142V3.22c0 .443-.158.821-.472 1.134a1.558 1.558 0 0 1-1.14.468H6.463v5.998H18.62c.445 0 .825.159 1.14.477.314.318.471.693.471 1.125v1.618c0 .443-.157.821-.471 1.134a1.558 1.558 0 0 1-1.14.468H6.463V22.8c0 .465-.157.854-.471 1.167a1.558 1.558 0 0 1-1.14.468H1.629c-.446 0-.829-.156-1.149-.468A1.565 1.565 0 0 1 0 22.799z"/>
        </g>
    </g>
</svg>
