<svg xmlns="http://www.w3.org/2000/svg" width="45" height="28" viewBox="0 0 45 28">
    <g fill="#FFF" fill-rule="evenodd">
        <path d="M22.595 11.858v2.568c.394-.076.702-.235.92-.473.21-.238.318-.516.318-.835 0-.34-.108-.602-.314-.787-.208-.188-.515-.345-.924-.473zm-.743-1.742V7.872c-.327.095-.586.226-.77.384-.18.161-.276.403-.276.728 0 .31.087.541.261.703.17.156.432.298.785.43zm.743-4.025v.637c.42.04.779.126 1.076.255.301.128.56.325.782.587.178.2.313.41.41.618.097.208.147.405.147.58a.694.694 0 0 1-.218.507.712.712 0 0 1-.518.212c-.383 0-.63-.206-.746-.62-.128-.488-.44-.81-.933-.975v2.442c.484.132.872.25 1.162.364.284.11.543.265.77.477.239.211.426.47.56.768.129.3.196.627.196.985 0 .444-.107.86-.314 1.248-.206.39-.516.71-.924.954-.406.247-.891.394-1.45.438v.571c0 .226-.023.398-.068.504-.045.1-.142.157-.292.157-.143 0-.244-.041-.298-.128-.058-.087-.085-.22-.085-.4v-.689a3.854 3.854 0 0 1-1.201-.322 2.797 2.797 0 0 1-.858-.61 2.756 2.756 0 0 1-.507-.766 2.053 2.053 0 0 1-.162-.776c0-.187.074-.357.222-.506a.718.718 0 0 1 .543-.23c.179 0 .324.042.449.126a.621.621 0 0 1 .252.345c.105.319.195.566.274.74.077.166.202.322.358.464.155.14.369.246.63.322v-2.73a7.195 7.195 0 0 1-1.314-.483 2.173 2.173 0 0 1-.855-.76c-.221-.328-.33-.748-.33-1.267 0-.671.216-1.225.643-1.654.426-.43 1.046-.678 1.856-.748v-.625c0-.328.12-.491.37-.491s.373.159.373.48z"/>
        <path d="M6.177 21.551h32.052V1.71H6.177v19.842zm32.816 1.527H5.413a.762.762 0 0 1-.763-.764V.946c0-.421.342-.763.764-.763h33.579c.422 0 .763.342.763.763v21.368c0 .423-.34.764-.763.764z"/>
        <path d="M9.23 18.499h25.947V4.762H9.229v13.737zm26.71 1.526H8.466a.762.762 0 0 1-.763-.763V3.999c0-.422.342-.763.763-.763H35.94c.423 0 .763.341.763.763v15.263c0 .423-.34.763-.763.763zM43.443 27.531H.961a.762.762 0 1 1 0-1.526h42.482a.762.762 0 1 1 0 1.526"/>
    </g>
</svg>
