<svg xmlns="http://www.w3.org/2000/svg" width="42" height="32" viewBox="0 0 42 32">
    <g fill="none" fill-rule="evenodd">
        <path d="M-5-5h51.048v42.2H-5z"/>
        <path fill="#FFF" fill-rule="nonzero" d="M7.776 31.583v-2.056a1.208 1.208 0 0 0-.356-.943c-.251-.25-.6-.38-.956-.36-.47-.03-.919.193-1.172.583a1.23 1.23 0 0 0-1.102-.583c-.39-.02-.763.166-.977.487v-.404h-.726v3.276h.733V29.78a.76.76 0 0 1 .2-.624.789.789 0 0 1 .616-.246c.482 0 .726.308.726.864v1.823h.732V29.78a.763.763 0 0 1 .201-.622.792.792 0 0 1 .616-.248c.495 0 .732.308.732.864v1.823l.733-.014zm10.84-3.276h-1.194v-.994h-.733v.994h-.662v.65h.676v1.509c0 .761.3 1.213 1.159 1.213.32.001.635-.086.907-.253l-.21-.61a1.357 1.357 0 0 1-.641.185c-.35 0-.482-.22-.482-.549v-1.494h1.186l-.007-.651zm6.188-.083a.988.988 0 0 0-.879.48v-.397h-.719v3.276h.726v-1.837c0-.541.237-.843.698-.843.155-.002.309.026.453.082l.224-.685a1.577 1.577 0 0 0-.517-.09l.014.014zm-9.356.343a2.53 2.53 0 0 0-1.361-.343c-.844 0-1.396.398-1.396 1.05 0 .534.405.863 1.152.966l.349.048c.397.055.586.157.586.343 0 .253-.265.397-.76.397-.4.011-.79-.11-1.11-.343l-.35.556c.424.29.93.439 1.445.425.963 0 1.521-.446 1.521-1.07 0-.624-.44-.877-1.165-.98l-.349-.048c-.314-.041-.565-.103-.565-.322 0-.22.237-.384.635-.384.368.004.728.1 1.047.28l.32-.575zm19.435-.343a.988.988 0 0 0-.88.48v-.397h-.718v3.276h.726v-1.837c0-.541.237-.843.697-.843.156-.002.31.026.454.082l.223-.685a1.577 1.577 0 0 0-.516-.09l.014.014zm-9.35 1.714a1.64 1.64 0 0 0 .505 1.243c.338.326.801.497 1.275.471.435.022.863-.118 1.2-.39l-.35-.577c-.25.188-.556.292-.871.295a1.06 1.06 0 0 1-.985-1.049c0-.548.428-1.004.985-1.049.315.004.62.107.872.295l.349-.576a1.765 1.765 0 0 0-1.2-.39 1.702 1.702 0 0 0-1.275.47 1.64 1.64 0 0 0-.505 1.243v.014zm6.796 0v-1.631h-.725v.397a1.275 1.275 0 0 0-1.047-.48c-.963 0-1.744.768-1.744 1.714 0 .947.78 1.714 1.744 1.714.407.015.797-.164 1.047-.48v.398h.725v-1.632zm-2.7 0a1.002 1.002 0 0 1 1.044-.931c.548.02.98.467.97 1.005a1 1 0 0 1-1.002.975 1.01 1.01 0 0 1-.74-.307.974.974 0 0 1-.272-.742zm-8.757-1.714c-.963.014-1.733.792-1.72 1.738.014.947.806 1.703 1.77 1.69a2.05 2.05 0 0 0 1.384-.446l-.349-.527a1.605 1.605 0 0 1-.97.342.92.92 0 0 1-.997-.802h2.477v-.274c0-1.028-.65-1.714-1.584-1.714l-.01-.007zm0 .638a.835.835 0 0 1 .59.226c.159.149.25.354.255.57h-1.745a.852.852 0 0 1 .886-.796h.014zm18.18 1.083V26.99h-.698v1.714a1.275 1.275 0 0 0-1.046-.48c-.964 0-1.745.768-1.745 1.714 0 .947.781 1.714 1.745 1.714.407.015.796-.164 1.046-.48v.398h.698v-1.625zm1.21 1.162a.354.354 0 0 1 .241.093.314.314 0 0 1 0 .46.35.35 0 0 1-.108.067.35.35 0 0 1-.447-.171.317.317 0 0 1 .182-.425.354.354 0 0 1 .143-.024h-.01zm0 .58a.251.251 0 0 0 .182-.076.25.25 0 0 0 0-.343.258.258 0 0 0-.182-.075.266.266 0 0 0-.184.075.25.25 0 0 0 0 .343.262.262 0 0 0 .195.075h-.01zm.021-.409a.141.141 0 0 1 .091.028.085.085 0 0 1 .031.072.081.081 0 0 1-.024.061.123.123 0 0 1-.073.031l.101.113h-.08l-.094-.113h-.032v.113h-.066v-.301l.146-.004zm-.076.059v.082h.076a.075.075 0 0 0 .042 0 .034.034 0 0 0 0-.03.034.034 0 0 0 0-.032.075.075 0 0 0-.042 0l-.076-.02zm-3.838-1.392a1.002 1.002 0 0 1 1.044-.932c.548.02.98.468.97 1.006a1 1 0 0 1-1.002.975 1.01 1.01 0 0 1-.74-.307.974.974 0 0 1-.272-.742zm-24.5 0v-1.638h-.727v.397a1.275 1.275 0 0 0-1.046-.48c-.963 0-1.744.768-1.744 1.714 0 .947.78 1.714 1.744 1.714.407.015.797-.164 1.046-.48v.398h.726v-1.625zm-2.701 0a1.002 1.002 0 0 1 1.044-.932c.548.02.98.468.97 1.006a1 1 0 0 1-1.002.975 1.01 1.01 0 0 1-.744-.305.974.974 0 0 1-.275-.744h.007z"/>
        <g fill-rule="nonzero">
            <path fill="#FF5F00" d="M15.332 3.153h10.995v19.53H15.332z"/>
            <path fill="#EB001B" d="M16.03 12.92a12.347 12.347 0 0 1 4.8-9.767C15.678-.849 8.28-.266 3.834 4.493a12.313 12.313 0 0 0 0 16.85c4.445 4.759 11.844 5.342 16.996 1.34a12.347 12.347 0 0 1-4.8-9.763z"/>
            <path fill="#F79E1B" d="M41.162 12.92c0 4.755-2.748 9.092-7.075 11.17a12.687 12.687 0 0 1-13.257-1.407 12.367 12.367 0 0 0 4.8-9.765c0-3.81-1.769-7.41-4.8-9.765a12.687 12.687 0 0 1 13.257-1.407c4.327 2.078 7.075 6.415 7.075 11.17v.004zM39.961 20.613v-.4h.164v-.083h-.415v.083h.178v.4h.073zm.806 0v-.483h-.125l-.147.345-.147-.345h-.111v.483h.09v-.362l.137.314h.094l.136-.314v.365l.073-.003z"/>
        </g>
    </g>
</svg>
