<svg xmlns="http://www.w3.org/2000/svg" width="32" height="29" viewBox="0 0 32 29">
    <g fill="#FFF" fill-rule="evenodd">
        <path d="M16.337 9.436v2.658c.406-.082.724-.244.947-.49.222-.246.33-.535.33-.863 0-.351-.106-.623-.32-.814-.217-.193-.538-.354-.957-.49zm-.772-1.8V5.315c-.339.1-.604.233-.793.398-.19.168-.283.416-.283.754 0 .318.088.561.264.724.18.165.45.312.812.445zm.772-4.159v.655c.433.044.805.134 1.115.266.307.132.578.335.807.605.181.208.321.42.422.638.098.217.149.419.149.602a.713.713 0 0 1-.222.524.732.732 0 0 1-.537.222c-.396 0-.653-.214-.77-.646-.134-.504-.453-.84-.964-1.004V7.86c.5.138.902.264 1.198.377.296.114.564.276.798.49.251.224.441.49.579.798.135.311.203.648.203 1.017 0 .46-.107.892-.324 1.293a2.582 2.582 0 0 1-.956.988c-.422.253-.92.406-1.498.453v1.511c0 .238-.024.412-.07.52-.048.11-.148.165-.306.165-.145 0-.25-.044-.306-.132-.058-.09-.09-.227-.09-.414v-1.638a3.79 3.79 0 0 1-1.239-.333 3.003 3.003 0 0 1-.885-.633 2.695 2.695 0 0 1-.525-.79 2.092 2.092 0 0 1-.169-.802.74.74 0 0 1 .226-.526.763.763 0 0 1 .567-.233c.183 0 .337.042.463.129a.64.64 0 0 1 .257.356c.111.332.206.587.29.76.079.178.2.339.364.484.166.145.383.256.651.335V9.212a7.348 7.348 0 0 1-1.359-.5 2.295 2.295 0 0 1-.882-.785c-.227-.34-.34-.775-.34-1.31 0-.695.221-1.266.662-1.71.443-.445 1.082-.703 1.92-.775v-.643c0-.34.128-.51.383-.51.258 0 .388.166.388.498z"/>
        <path d="M1.59 16.79h28.685V1.66H1.59v15.13zm29.315 1.26H.96a.63.63 0 0 1-.63-.63V1.03a.63.63 0 0 1 .63-.63h29.945c.35 0 .63.282.63.63V17.42a.63.63 0 0 1-.63.63z"/>
        <path d="M30.905 28.347H.96a.63.63 0 0 1-.63-.63V11.324a.63.63 0 0 1 1.26 0v15.761h28.685v-15.76a.63.63 0 0 1 1.26 0v16.39a.63.63 0 0 1-.63.63M11.597 5.049H4.585a.63.63 0 0 1 0-1.261h7.012a.63.63 0 1 1 0 1.26M27.28 5.049h-7.015a.63.63 0 0 1 0-1.261h7.015a.63.63 0 1 1 0 1.26"/>
        <path d="M11.597 14.663H4.585a.63.63 0 0 1 0-1.261h7.012a.63.63 0 1 1 0 1.26M27.28 14.663h-7.015a.63.63 0 0 1 0-1.261h7.015a.63.63 0 1 1 0 1.26M30.205 21.461h-29a.63.63 0 1 1 0-1.26h29a.63.63 0 0 1 0 1.26M30.205 24.838h-29a.63.63 0 1 1 0-1.261h29a.63.63 0 0 1 0 1.26"/>
    </g>
</svg>
