<svg xmlns="http://www.w3.org/2000/svg" width="98" height="17" viewBox="0 0 98 17">
    <g fill="#8DC640" fill-rule="nonzero">
        <path d="M86.4 7.228c-.524.36-1.285.537-2.327.537H83.04l.792-4.206h.76c.864 0 1.496.137 1.931.415.34.218.744.649.744 1.467 0 .985-.47 1.516-.866 1.787zm-61.63 5.279h-7.994l.516-2.75h5.015l.57-3.096h-4.966l.48-2.72h7.98l-1.6 8.566zM90.709 1.58C89.532.788 87.753.389 85.42.389h-6.108l-2.27 12.118H69.04l.513-2.749h4.82l.574-3.088-4.818.009.516-2.738h4.964L76.27.39H66.188L64.03 11.885h-3.697L62.504.39h-5.271l-2.155 11.495h-3.606L53.645.39H48.38l-2.277 12.118h-8.058l.508-2.75h4.842l.57-3.07-4.834-.004.513-2.743h5.02L45.32.39H13.903l-1.788 9.603L8.552.389H3.085L.142 16.061h5.221l1.781-9.867 3.458 9.867h18.715l2.275-12.12h2.929l-2.277 12.12h49.247l1.426-7.652 2.312 7.652h5.225L88.06 9.809l.546-.116c1.204-.254 2.147-.8 2.8-1.618.656-.825.989-1.885.989-3.159 0-1.483-.55-2.573-1.687-3.335zM95.013 14.207l.712-.036c.15-.007.27-.03.352-.065a.369.369 0 0 0 .187-.158c.04-.07.06-.144.054-.223a.37.37 0 0 0-.143-.283c-.09-.07-.228-.1-.414-.091l-.792.04.044.816zM94.75 15.6l-.128-2.465 1.112-.055c.223-.012.393.002.512.041.12.038.215.112.291.22.075.109.117.23.123.366a.61.61 0 0 1-.15.45c-.108.126-.281.211-.52.256a.91.91 0 0 1 .206.112c.102.082.199.187.292.315l.468.649-.414.02-.358-.496a4.609 4.609 0 0 0-.257-.328.746.746 0 0 0-.177-.156.515.515 0 0 0-.154-.059 1.045 1.045 0 0 0-.186-.002l-.383.02.056 1.095-.333.017z"/>
        <path d="M93.664 14.406a1.88 1.88 0 0 1 .498-1.377 1.948 1.948 0 0 1 1.346-.629c1.07-.054 1.986.758 2.04 1.81.002.033.004.068.004.099 0 1.01-.81 1.856-1.846 1.91-1.072.053-1.986-.76-2.042-1.813m1.822-2.399c-.624.033-1.2.301-1.619.758a2.268 2.268 0 0 0-.601 1.662c.067 1.268 1.17 2.246 2.461 2.183 1.289-.066 2.286-1.15 2.22-2.419-.066-1.269-1.169-2.248-2.46-2.184"/>
    </g>
</svg>
