<svg xmlns="http://www.w3.org/2000/svg" width="33" height="34" viewBox="0 0 33 34">
    <g fill="#FFF" fill-rule="evenodd">
        <path d="M1.556 16.446l4.607 15.637 7.157-2.106-4.607-15.645-7.157 2.114zm4.128 17.225a.71.71 0 0 1-.68-.508L-.003 16.167a.707.707 0 0 1 .48-.878l8.516-2.515a.705.705 0 0 1 .88.479l5.006 17.001a.71.71 0 0 1-.478.881l-8.519 2.507a.687.687 0 0 1-.198.03z"/>
        <path d="M15.43 24.814c.662 0 1.393.036 2.172.105l2.202.19c1.523.127 2.856.24 3.723.353.26.03.56.06.871.06.414 0 1.784-.053 2.047-.756a2.66 2.66 0 0 0 .143-.609.704.704 0 0 1 .468-.592c.799-.284 1.345-.996 1.39-1.818a1.752 1.752 0 0 0-.027-.467.707.707 0 0 1 .34-.741 2.02 2.02 0 0 0 1.011-1.63 2.017 2.017 0 0 0-.173-.937.71.71 0 0 1 .174-.808 2.525 2.525 0 0 0 .849-1.882 2.56 2.56 0 0 0-2.554-2.56c-.003 0-.241.005-.625.005-2.696 0-6.128-.225-7.173-1.296a1.327 1.327 0 0 1-.402-.976c.002-.434.026-.922.068-1.473.034-.275.07-.512.104-.744.052-.344.102-.674.126-.98.204-2.51-.356-4.093-.948-4.735-.17-.183-.347-.29-.475-.29-.527 0-1.397.224-1.482.425.037.338.332 3.197-.43 5.66-1.134 2.116-4.274 5.602-6.334 7.355l2.738 9.292c.642-.1 1.379-.15 2.197-.15zm8.968 2.125c-.371 0-.73-.032-1.048-.072-.857-.11-2.17-.22-3.665-.347l-2.21-.19c-2.105-.187-3.507-.11-4.576.142a.699.699 0 0 1-.843-.489l-3.051-10.36a.708.708 0 0 1 .236-.755c1.893-1.505 5.233-5.15 6.289-7.096.633-2.097.335-4.818.323-4.933-.05-.426.076-.822.362-1.145.774-.868 2.508-.878 2.526-.878.54 0 1.066.26 1.515.748 1.045 1.132 1.527 3.25 1.32 5.808-.028.336-.08.697-.137 1.076-.034.22-.067.447-.097.677a18.71 18.71 0 0 0-.06 1.353c.205.29 2.075.833 6.159.833l.606-.006a3.982 3.982 0 0 1 3.99 3.977c0 .962-.343 1.864-.975 2.586a3.408 3.408 0 0 1-1.196 3.627c.005.116.003.231-.005.346-.07 1.236-.815 2.334-1.934 2.891a4.48 4.48 0 0 1-.152.524c-.41 1.088-1.608 1.683-3.377 1.683z"/>
    </g>
</svg>
