<svg xmlns="http://www.w3.org/2000/svg" width="18" height="18" viewBox="0 0 18 18">
    <g fill="#FFF" fill-rule="nonzero" opacity=".64">
        <path d="M9.101 8.473H8.9a.416.416 0 0 1 0-.83H9.1c.23 0 .415.186.415.415h1.055c0-.663-.44-1.224-1.044-1.407V5.623H8.473V6.65a1.472 1.472 0 0 0-1.044 1.407c0 .81.66 1.47 1.47 1.47H9.1a.416.416 0 0 1 0 .83H8.9a.416.416 0 0 1-.415-.416H7.429c0 .663.44 1.224 1.044 1.407v1.028h1.054V11.35a1.472 1.472 0 0 0 1.044-1.407c0-.81-.66-1.47-1.47-1.47z"/>
        <path d="M16.892 8.473a7.851 7.851 0 0 0-2.299-5.066 7.851 7.851 0 0 0-5.066-2.3V0H8.473v1.108a7.851 7.851 0 0 0-5.066 2.299 7.851 7.851 0 0 0-2.3 5.066H0v1.054h1.108a7.852 7.852 0 0 0 2.299 5.066 7.851 7.851 0 0 0 5.066 2.3V18h1.054v-1.108a7.852 7.852 0 0 0 5.066-2.299 7.851 7.851 0 0 0 2.3-5.066H18V8.473h-1.108zm-12.74-4.32a6.805 6.805 0 0 1 4.32-1.988v.819A5.994 5.994 0 0 0 4.73 4.73a5.994 5.994 0 0 0-1.746 3.743h-.82a6.805 6.805 0 0 1 1.988-4.32zm4.32 11.682a6.804 6.804 0 0 1-4.32-1.987 6.805 6.805 0 0 1-1.987-4.32h.819A5.993 5.993 0 0 0 4.73 13.27a5.994 5.994 0 0 0 3.743 1.746v.82zm0-2.56v.682a4.947 4.947 0 0 1-2.997-1.432 4.947 4.947 0 0 1-1.432-2.998h.682V8.473h-.682a4.947 4.947 0 0 1 1.433-2.998 4.947 4.947 0 0 1 2.997-1.432v.61h1.054v-.61a4.947 4.947 0 0 1 2.998 1.432 4.947 4.947 0 0 1 1.432 2.998h-.682v1.054h.682a4.947 4.947 0 0 1-1.432 2.998 4.947 4.947 0 0 1-2.998 1.432v-.682H8.473zm5.376.573a6.804 6.804 0 0 1-4.32 1.987v-.819a5.993 5.993 0 0 0 3.742-1.746 5.994 5.994 0 0 0 1.746-3.743h.82a6.804 6.804 0 0 1-1.988 4.32zm1.168-5.375A5.993 5.993 0 0 0 13.27 4.73a5.994 5.994 0 0 0-3.743-1.746v-.82a6.805 6.805 0 0 1 4.32 1.988 6.804 6.804 0 0 1 1.988 4.32h-.819z"/>
    </g>
</svg>
