<svg xmlns="http://www.w3.org/2000/svg" width="110" height="19" viewBox="0 0 110 19">
    <g fill="none" fill-rule="nonzero">
        <path fill="#008AC9" d="M19.806 8.322c-.012-.382-.192-.579-.541-.592H17.4c-.441.028-.67.27-.68.725v3.354c.01.47.263.71.753.723h1.709a.562.562 0 0 0 .442-.2.48.48 0 0 0 .182-.392V8.322zm-5.48-.476c.013-.84.2-1.477.562-1.913.19-.183.427-.336.716-.462.3-.135.592-.2.874-.2H19.9c1.51.013 2.277.839 2.301 2.479v5.048c-.01.582-.239 1.088-.68 1.51-.436.444-.957.67-1.565.684H16.72v3.64h-2.394V7.845zM26.523 12.045c0 .14.065.252.19.335.114.1.256.152.436.152h1.838c.416 0 .632-.16.644-.487v-.686c0-.375-.22-.565-.661-.565h-1.821c-.24 0-.406.04-.498.116-.085.088-.128.264-.128.524v.611zm3.108-3.783c.012-.368-.202-.543-.644-.532h-4.822V5.271h5.429c1.581.026 2.384.79 2.411 2.298v5.145c-.013.65-.213 1.187-.6 1.614-.404.442-.925.664-1.564.664H26.56c-1.597-.013-2.407-.743-2.432-2.192v-1.986c.013-1.514.786-2.284 2.318-2.31h3.185v-.242zM38.729 16.171a.774.774 0 0 0 .488-.202.515.515 0 0 0 .192-.393v-.584h-3.065c-.4 0-.72-.051-.958-.153-.252-.092-.503-.264-.755-.509-.24-.259-.412-.53-.516-.813-.109-.26-.164-.589-.164-.985v-7.26h2.393v6.48c0 .52.212.78.642.78h1.69a.744.744 0 0 0 .522-.2.51.51 0 0 0 .211-.408V5.27h2.374v10.712c-.013.793-.216 1.427-.608 1.909-.398.48-.942.727-1.636.74H33.95v-2.46h4.778M43.663 12.532h4.266c.39-.013.593-.17.605-.47v-.22a.487.487 0 0 0-.057-.212c-.095-.186-.212-.278-.351-.278H46.01a2.36 2.36 0 0 1-1.613-.646c-.456-.385-.689-.86-.702-1.416V7.456c.024-1.43.802-2.159 2.333-2.185h4.948v2.46h-4.192c-.492 0-.74.15-.74.451v.238c0 .312.253.469.758.469h2.109a1.98 1.98 0 0 1 1.44.647c.402.423.612.925.625 1.509v1.794c-.013.504-.247 1.007-.695 1.509-.219.246-.442.415-.666.511-.232.088-.546.133-.948.133h-5.005v-2.46M55.073 12.045c0 .14.065.252.194.335.112.1.254.152.432.152h1.842c.416 0 .63-.16.643-.487v-.686c0-.375-.223-.565-.663-.565H55.7c-.24 0-.404.04-.496.116-.085.088-.13.264-.13.524v.611zm3.11-3.783c.011-.368-.203-.543-.646-.532h-4.82V5.271h5.43c1.58.026 2.383.79 2.408 2.298v5.145c-.013.65-.214 1.187-.599 1.614-.4.442-.923.664-1.562.664H55.11c-1.597-.013-2.407-.743-2.43-2.192v-1.986c.011-1.514.785-2.284 2.318-2.31h3.186v-.242zM62.501 3.877c.015-.664.26-1.197.739-1.597.465-.406 1.076-.615 1.832-.626h1.52v2.375h-.92c-.507.012-.765.254-.776.722v.52h1.696v2.462h-1.696v7.26h-2.395V3.877M73.4 8.216V8.16a.382.382 0 0 0-.153-.313.702.702 0 0 0-.412-.116h-1.667a.734.734 0 0 0-.52.183.52.52 0 0 0-.25.447v.987l3.003-1.13zm-2.963 3.477v.153c0 .197.051.354.155.467.075.145.177.22.311.22h4.918v2.46h-5.229c-.477 0-.849-.046-1.112-.135a2.018 2.018 0 0 1-.77-.464c-.263-.26-.442-.526-.532-.798-.1-.285-.148-.662-.148-1.132l-.02-4.923c.026-1.487.803-2.244 2.33-2.27h3.227c1.49.026 2.246.81 2.27 2.354V9.57l-5.4 2.123zM80.905 14.992a4.98 4.98 0 0 1-.994-.095c-.314-.05-.627-.196-.948-.443-.328-.286-.556-.607-.68-.961a3.34 3.34 0 0 1-.195-1.188v-4.59a2.993 2.993 0 0 1 .111-.988c.08-.284.25-.563.506-.835.291-.286.589-.477.902-.57a4.209 4.209 0 0 1 1.024-.114h3.67v.575h-3.585c-.633 0-1.13.13-1.494.39-.372.284-.561.774-.561 1.463v4.594c0 .323.049.637.147.94.1.298.268.56.508.788.261.198.521.322.774.372.264.059.548.086.848.086h3.42v.576h-3.453M93.737 9.037h-4.81c-.576.013-1.027.19-1.352.534-.336.348-.503.826-.503 1.433v1.465c0 .284.03.544.09.778.061.246.212.466.45.654a2.11 2.11 0 0 0 1.38.515h2.914c1.218-.013 1.831-.654 1.831-1.929v-3.45zm.572 3.307c0 .37-.028.694-.076.98-.077.31-.237.61-.478.894-.502.529-1.125.787-1.869.774h-2.86c-.743 0-1.346-.222-1.812-.664-.477-.437-.718-1.044-.718-1.822v-1.48c.024-1.67.855-2.525 2.494-2.563h4.765v-.648c0-.533-.155-1-.462-1.403a1.445 1.445 0 0 0-.688-.525 3.532 3.532 0 0 0-.894-.104h-5.198v-.575h4.928c.45 0 .858.031 1.227.094.19.037.362.111.521.218.169.102.326.25.472.446a3.06 3.06 0 0 1 .648 1.968v4.41zM99.688 5.783c-1.334.025-1.991.753-1.966 2.185v7.024h-.573V7.971c-.027-1.843.85-2.763 2.632-2.763h.637v.575h-.73M109.379 5.786h-4.535c-.326 0-.619.036-.883.106-.276.062-.543.23-.793.502-.239.249-.39.495-.452.741a2.493 2.493 0 0 0-.109.894v4.478c0 .744.216 1.251.653 1.523a2.6 2.6 0 0 0 .718.284c.265.071.56.106.885.106h1.982c.74 0 1.347-.17 1.812-.515.468-.322.706-.879.722-1.672V5.786zm.572 6.486c-.05 1.854-1.031 2.762-2.942 2.724h-2.125c-.45 0-.85-.04-1.205-.114-.366-.094-.716-.317-1.052-.664-.254-.313-.416-.628-.482-.951a3.62 3.62 0 0 1-.112-1.074V8.014c.025-1.882.973-2.817 2.846-2.803h4.5V2.038h.572v10.234z"/>
        <path fill="#E3001B" d="M1.028 4.902c.188-.083.376-.148.564-.188a3.636 3.636 0 0 1 7.119 0c.537.103.982.32 1.329.644a5.228 5.228 0 0 0-.036-.909A4.883 4.883 0 0 0 5.144 0C2.518 0 .383 2.08.271 4.68c-.015.224-.02.458-.012.702.22-.185.472-.352.768-.48"/>
        <path fill="#E3001B" d="M8 5.271H2.151c-.282 0-.573.065-.873.2-.29.126-.527.28-.718.462C.2 6.369.013 7.007 0 7.846v4.57c.013.841.199 1.478.561 1.912.19.186.428.338.718.466.3.132.591.198.873.198h5.847c1.51-.013 2.278-.842 2.302-2.48V7.75C10.277 6.11 9.51 5.284 8 5.27"/>
    </g>
</svg>
