<svg xmlns="http://www.w3.org/2000/svg" width="25" height="20" viewBox="0 0 25 20">
    <g fill="#FFF" fill-rule="nonzero">
        <path d="M0 6.123v10.864c0 1.659 1.367 3.005 3.051 3.005h18.898c1.684 0 3.051-1.346 3.051-3.005V6.123c0-1.578-1.301-2.86-2.903-2.86h-4.061l-.097-.416c-.393-1.674-1.888-2.84-3.633-2.84H10.69c-1.74 0-3.235 1.166-3.633 2.84l-.097.417H2.903C1.301 3.264 0 4.55 0 6.124zm7.46-1.628a.62.62 0 0 0 .606-.477l.21-.895a2.46 2.46 0 0 1 2.413-1.884h3.617a2.46 2.46 0 0 1 2.413 1.884l.21.895a.625.625 0 0 0 .607.477h4.556a1.64 1.64 0 0 1 1.653 1.628v10.864c0 .98-.806 1.774-1.801 1.774H3.05c-.995 0-1.801-.794-1.801-1.774V6.123c0-.9.74-1.628 1.653-1.628H7.46z"/>
        <ellipse cx="4.23" cy="7.123" rx="1" ry="1"/>
        <path d="M12.5 16.832c2.893 0 5.25-2.322 5.25-5.171 0-2.85-2.357-5.171-5.25-5.171s-5.25 2.317-5.25 5.17c0 2.855 2.357 5.172 5.25 5.172zm0-9.11c2.204 0 4 1.768 4 3.939 0 2.17-1.796 3.94-4 3.94-2.204 0-4-1.77-4-3.94 0-2.171 1.796-3.94 4-3.94z"/>
    </g>
</svg>
