<svg xmlns="http://www.w3.org/2000/svg" width="48" height="48" viewBox="0 0 48 48">
    <g fill="#FFF" fill-rule="evenodd" opacity=".84">
        <path d="M24 0C10.745 0 0 10.745 0 24s10.745 24 24 24 24-10.745 24-24S37.255 0 24 0zm0 44.727c-11.447 0-20.727-9.28-20.727-20.727 0-11.447 9.28-20.727 20.727-20.727 11.447 0 20.727 9.28 20.727 20.727 0 11.447-9.28 20.727-20.727 20.727z"/>
        <path d="M32.37 21.068l-10.909-5.45a3.274 3.274 0 0 0-4.734 2.942v10.901a3.27 3.27 0 0 0 4.734 2.922l10.908-5.45a3.27 3.27 0 0 0 0-5.854v-.011zM20 29.46v-10.9l10.908 5.45L20 29.46z"/>
    </g>
</svg>
