<svg xmlns="http://www.w3.org/2000/svg" width="18" height="18" viewBox="0 0 18 18">
    <g fill="#FFCF54" fill-rule="nonzero">
        <path d="M16.601 7.069c.326-.322.441-.793.3-1.231a1.184 1.184 0 0 0-.958-.818l-3.938-.579a.238.238 0 0 1-.18-.131L10.066.698A1.178 1.178 0 0 0 9 .028c-.455 0-.863.257-1.064.67L6.174 4.31a.238.238 0 0 1-.179.131l-3.938.58c-.45.065-.818.379-.958.817-.141.438-.026.91.3 1.23L4.25 9.88a.242.242 0 0 1 .068.212l-.672 3.97a1.2 1.2 0 0 0 .472 1.174c.368.271.847.306 1.25.092l3.523-1.874a.235.235 0 0 1 .22 0l3.523 1.874a1.173 1.173 0 0 0 1.25-.092 1.2 1.2 0 0 0 .473-1.175l-.673-3.969a.242.242 0 0 1 .068-.212l2.85-2.811zm-3.854 3.186l.673 3.97a.235.235 0 0 1-.095.234.23.23 0 0 1-.25.018l-3.522-1.874a1.176 1.176 0 0 0-1.105 0l-3.523 1.874a.23.23 0 0 1-.25-.018.235.235 0 0 1-.094-.235l.672-3.97a1.21 1.21 0 0 0-.341-1.062L2.062 6.38a.236.236 0 0 1-.06-.246.232.232 0 0 1 .192-.164l3.938-.58c.387-.056.72-.302.894-.656l1.761-3.611A.23.23 0 0 1 9 .99a.23.23 0 0 1 .213.134l1.761 3.61c.173.356.507.601.894.658l3.939.58c.131.018.178.12.191.163a.236.236 0 0 1-.06.246l-2.85 2.81a1.21 1.21 0 0 0-.341 1.064zM14.547.698a.471.471 0 0 0-.663.106l-.504.702a.484.484 0 0 0 .105.671.47.47 0 0 0 .663-.106l.504-.702a.484.484 0 0 0-.105-.67zM4.618 1.503L4.114.802a.471.471 0 0 0-.663-.107.484.484 0 0 0-.105.671l.504.702a.472.472 0 0 0 .663.107.484.484 0 0 0 .105-.672zM1.742 10.808a.474.474 0 0 0-.598-.308l-.816.268a.482.482 0 0 0 .147.937.47.47 0 0 0 .147-.023l.815-.268a.482.482 0 0 0 .305-.606zM9 16.143a.478.478 0 0 0-.475.48v.868c0 .265.213.48.475.48a.478.478 0 0 0 .475-.48v-.868a.478.478 0 0 0-.475-.48zM17.672 10.769l-.816-.269a.474.474 0 0 0-.598.309.482.482 0 0 0 .305.605l.815.268a.47.47 0 0 0 .599-.308.482.482 0 0 0-.305-.605z"/>
    </g>
</svg>
