<svg xmlns="http://www.w3.org/2000/svg" width="79" height="27" viewBox="0 0 79 27">
    <path fill="#FFF" fill-rule="nonzero" d="M56.746 6.487a3.243 3.243 0 1 0 0-6.487 3.243 3.243 0 0 0 0 6.487zm-24.834 1.75c-.146.369-1.2 3.345-3.746 6.43V1.477l-6.787 1.341v23.91h6.787v-7.39c1.965 2.95 2.936 7.39 2.936 7.39h8.128c-.804-3.345-4.321-9.512-4.321-9.512 3.156-4.004 4.543-8.271 4.763-8.978h-7.76zm17.84-.249c-6.078.195-9.163 2.924-9.163 8.348v10.392h6.63v-8.474c0-3.248.426-4.64 4.278-4.773V8.083c-.649-.137-1.745-.095-1.745-.095zM9.998 10.871c-.831-.055-2.755-.18-2.755-1.913 0-2.092 2.77-2.092 3.81-2.092 1.826 0 4.193.54 5.883 1.046 0 0 .943.333 1.745.673l.074.02V2.878l-.102-.03c-1.994-.699-4.313-1.37-8.613-1.37C2.627 1.476 0 5.796 0 9.5c0 2.134.914 7.156 9.404 7.735.72.045 2.63.155 2.63 1.946 0 1.48-1.564 2.351-4.194 2.351-2.882 0-5.678-.735-7.377-1.433V26C3.006 26.668 5.872 27 9.231 27c7.248 0 10.495-4.089 10.495-8.14 0-4.596-3.633-7.58-9.728-7.99zm43.46 15.857h6.578V8.258H53.46v18.47zM72.422 2.654v24.074H79V1.476l-6.579 1.178zm-9.598 0l6.572-1.178v25.252h-6.572V2.654z"/>
</svg>
