<svg xmlns="http://www.w3.org/2000/svg" width="12" height="16" viewBox="0 0 12 16">
    <g fill="#FFF" fill-rule="evenodd" opacity=".64">
        <path d="M7.446 2.147l1.54 1.645H1.173c-.466 0-.843.398-.843.89 0 .491.377.89.843.89h7.73L7.445 7.127a.926.926 0 0 0 .008 1.26.812.812 0 0 0 1.192-.008l1.733-1.851c.481-.506.746-1.177.746-1.89 0-.715-.265-1.386-.746-1.891L8.646.896A.812.812 0 0 0 7.454.888a.926.926 0 0 0-.008 1.26zM4.008 14.345l-1.54-1.644h7.813c.466 0 .844-.399.844-.89 0-.492-.378-.89-.844-.89h-7.73l1.457-1.556A.926.926 0 0 0 4 8.106a.812.812 0 0 0-1.193.008l-1.733 1.85a2.725 2.725 0 0 0-.745 1.891c0 .714.264 1.386.745 1.89l1.733 1.852a.812.812 0 0 0 1.193.007.926.926 0 0 0 .007-1.259z"/>
    </g>
</svg>
