<svg xmlns="http://www.w3.org/2000/svg" width="34" height="34" viewBox="0 0 34 34">
    <defs>
        <filter id="a" width="153.8%" height="153.8%" x="-26.9%" y="-19.2%" filterUnits="objectBoundingBox">
            <feOffset dy="2" in="SourceAlpha" result="shadowOffsetOuter1"/>
            <feGaussianBlur in="shadowOffsetOuter1" result="shadowBlurOuter1" stdDeviation="2"/>
            <feColorMatrix in="shadowBlurOuter1" result="shadowMatrixOuter1" values="0 0 0 0 0 0 0 0 0 0 0 0 0 0 0 0 0 0 0.1 0"/>
            <feMerge>
                <feMergeNode in="shadowMatrixOuter1"/>
                <feMergeNode in="SourceGraphic"/>
            </feMerge>
        </filter>
        <linearGradient id="b" x1="50%" x2="50%" y1="0%" y2="100%">
            <stop offset="0%" stop-color="#FFCF00"/>
            <stop offset="100%" stop-color="#FFB700"/>
        </linearGradient>
    </defs>
    <g fill="none" fill-rule="evenodd" filter="url(#a)" transform="translate(4 2)">
        <path fill="url(#b)" d="M22.594 25.893H3.371a3.335 3.335 0 0 1-3.335-3.335V3.335A3.335 3.335 0 0 1 3.37 0h19.223a3.335 3.335 0 0 1 3.335 3.335v19.223a3.335 3.335 0 0 1-3.335 3.335"/>
        <path fill="#1C1E21" d="M19.76 9.707c0 .164-.003.329-.01.49v.068c0 5.474-4.438 9.912-9.912 9.912-.037 0-.075 0-.112-.002a9.845 9.845 0 0 1-5.389-1.666c2.99.286 4.848-1.414 4.848-1.414-2.556-.17-3.288-2.566-3.288-2.566.68.242 1.537-.064 1.537-.064-3.025-.939-2.848-3.528-2.848-3.528.733.502 1.538.41 1.538.41C3.621 8.93 5.171 6.6 5.171 6.6c3.246 3.818 7.086 3.812 7.526 3.8a3.692 3.692 0 0 1-.144-.635 3.046 3.046 0 0 1 .183-1.696 3.578 3.578 0 0 1 6.134-1.034l.114.082c.07 0 .151-.015.24-.045.669-.215 1.746-1.137 1.746-1.137l-1.382 2.39 2.04-.603-1.867 1.985"/>
    </g>
</svg>
