<svg xmlns="http://www.w3.org/2000/svg" width="57" height="19" viewBox="0 0 57 19">
    <g fill="#FFF" fill-rule="nonzero">
        <path d="M25.922 18H21l3.078-18H29zM42 .783C41.08.411 39.62 0 37.814 0c-4.609 0-7.854 2.504-7.874 6.085-.039 2.642 2.323 4.109 4.09 4.99 1.806.9 2.42 1.487 2.42 2.29-.019 1.232-1.46 1.8-2.803 1.8-1.864 0-2.862-.293-4.38-.979l-.614-.294-.653 4.13c1.095.507 3.111.958 5.205.978 4.897 0 8.085-2.466 8.123-6.281.019-2.094-1.229-3.698-3.918-5.01-1.632-.84-2.632-1.408-2.632-2.27.02-.782.846-1.584 2.689-1.584 1.517-.04 2.632.332 3.476.704l.422.196L42 .783zM47.899 11.623c.367-1.034 1.78-5.036 1.78-5.036-.019.039.366-1.053.587-1.723l.311 1.55s.845 4.31 1.028 5.21h-3.706zM53.403 0h-3.45c-1.063 0-1.87.325-2.33 1.493L41 18h4.679l.935-2.7h5.725c.128.632.532 2.7.532 2.7H57L53.403 0zM16.202 0L11.76 12.287l-.486-2.492c-.821-2.875-3.398-6-6.273-7.553L9.07 18h4.798L21 0h-4.798z"/>
        <path d="M7.364 0H.074L0 .372C5.687 1.898 9.453 5.578 11 10L9.415 1.546C9.155.371 8.353.04 7.365 0z"/>
    </g>
</svg>
