<svg xmlns="http://www.w3.org/2000/svg" width="15" height="15" viewBox="0 0 15 15">
    <path fill="#FFF" fill-opacity=".64" fill-rule="nonzero" d="M15 2.344v3.398a.586.586 0 1 1-1.172 0V2.344c0-.646-.526-1.172-1.172-1.172H2.344c-.646 0-1.172.526-1.172 1.172v6.328c0 .646.526 1.172 1.172 1.172h2.812a.586.586 0 1 1 0 1.172H2.344A2.346 2.346 0 0 1 0 8.672V2.344A2.346 2.346 0 0 1 2.344 0h10.312A2.346 2.346 0 0 1 15 2.344zm-.586 5.742a.586.586 0 0 0-.586.586c0 .646-.526 1.172-1.172 1.172H9.844a.586.586 0 1 0 0 1.172h2.812A2.346 2.346 0 0 0 15 8.672a.586.586 0 0 0-.586-.586zm-1.67-2.607a.586.586 0 1 0-1.172 0 .586.586 0 0 0 1.172 0zm-10.488 0a.586.586 0 1 0 1.172 0 .586.586 0 0 0-1.172 0zm6.912 6.966l-1.082 1.07v-5.43a.586.586 0 1 0-1.172 0v5.371L5.89 12.445a.586.586 0 0 0-.823.833l1.218 1.204c.333.334.774.518 1.244.518s.912-.184 1.245-.518l1.218-1.204a.586.586 0 0 0-.824-.833zm-.052-5.447a.623.623 0 0 0 .81-.16c.349-.495.533-1.06.533-1.633 0-1.596-1.327-2.894-2.959-2.894-1.632 0-2.959 1.298-2.959 2.894 0 .613.17 1.164.505 1.635a.62.62 0 0 0 .81.157c.272-.161.349-.493.172-.741a1.774 1.774 0 0 1-.315-1.051c0-1.005.802-1.822 1.787-1.822.985 0 1.787.817 1.787 1.822 0 .367-.12.73-.346 1.053-.175.248-.097.58.175.74z"/>
</svg>
